<?xml version="1.0" standalone="no"?>
<!DOCTYPE svg PUBLIC "-//W3C//DTD SVG 20010904//EN"
 "http://www.w3.org/TR/2001/REC-SVG-20010904/DTD/svg10.dtd">
<svg version="1.0" xmlns="http://www.w3.org/2000/svg"
 width="100.000000pt" height="100.000000pt" viewBox="0 0 100.000000 100.000000"
 preserveAspectRatio="xMidYMid meet">

<g transform="translate(0.000000,100.000000) scale(0.100000,-0.100000)"
fill="#000000" stroke="none">
<path d="M381 944 c-242 -65 -389 -317 -326 -559 22 -82 64 -152 132 -216 138
-132 338 -164 511 -82 108 50 253 227 225 272 -20 32 -56 19 -82 -29 -40 -73
-127 -153 -196 -180 -83 -33 -206 -34 -287 -1 -81 31 -159 106 -200 189 -30
61 -33 74 -33 162 0 82 4 103 27 152 37 80 107 152 187 191 60 29 74 32 161
32 87 0 101 -3 160 -32 73 -36 134 -94 177 -168 33 -56 64 -70 83 -35 26 49
-103 215 -207 269 -98 50 -227 63 -332 35z"/>
<path d="M362 597 c-45 -45 -82 -89 -82 -97 0 -20 161 -180 181 -180 20 0 39
20 39 40 0 9 -18 34 -40 55 l-41 40 262 5 c235 4 263 7 273 23 8 12 8 22 0 35
-10 15 -38 18 -273 22 l-262 5 41 40 c41 40 49 62 28 83 -23 23 -44 11 -126
-71z"/>
</g>
</svg>
